<svg version="1.1" id="Layer_1" xmlns="http://www.w3.org/2000/svg" xmlns:xlink="http://www.w3.org/1999/xlink" x="0px" y="0px" viewBox="100 88.9 1000 224.1" style="enable-background:new 100 88.9 1000 224.1;" xml:space="preserve">
 <style type="text/css">
  .st0{fill:#ECECEC;}
 </style>
 <path class="st0" d="M638.3,238.6c-4.7,0-8.6,3.9-8.6,8.6s3.8,8.6,8.6,8.6c4.7,0,8.6-3.9,8.6-8.6C647,242.5,643.1,238.6,638.3,238.6
	 M638.3,254c-3.7,0-6.7-3-6.7-6.7s3-6.7,6.7-6.7c3.7,0,6.7,3,6.7,6.7S642.1,254,638.3,254 M279.1,250.1h20.8V171h-20.8V250.1z
	 M599.5,201.1l-37.6-32.4V250l20.9,0.1v-33.4l37.4,36.7v-82.1h-20.7L599.5,201.1L599.5,201.1z M215.4,230.9
	c-11.2,0-20.3-9.1-20.3-20.3c0-11.2,9.1-20.3,20.3-20.3c5,0,9.5,1.8,13.1,4.8l13.4-15.3c-7.1-6.1-16.4-9.8-26.5-9.8
	c-22.5,0-40.7,18.2-40.7,40.7s18.2,40.7,40.7,40.7c10.2,0,19.6-3.8,26.7-10L228.7,226C225.1,229.1,220.5,230.9,215.4,230.9
	 M466.1,143.4H363.3l-23.9,62.5l-23.9-62.5H209.2l-11,20.8h47.6l0,86h21.4l0.1-86h32.8l39.3,104.3l39.3-104.3h98.8L466.1,143.4z
	 M427.5,189.6c1.1-1.5,4.9-1.5,4.9-1.5h13.3v-17.2h-21.6c-7.1,0-17.5,4.3-17.5,18.7c0,19,23.5,31.5,21.2,39.1
	c-1.1,3.7-5.5,3.8-7.8,3.8h-14.3v17.5H429c10,0,20-6.1,20-17.8C449,210,421.7,197.9,427.5,189.6 M379,250.1h20.8v-79.2H379V250.1z
	 M452.3,250.1h20.8v-79.2h-20.8V250.1z M640.8,247.1L640.8,247.1c1-0.4,1.4-1.2,1.4-2.3c0-1.4-1-2.5-2.7-2.5h-4.9v9.1h2v-3.5h2
	c1,0,1.4,0.4,1.5,1.4c0.1,0.7,0.1,1.6,0.3,2.2h2c-0.4-0.5-0.3-1.6-0.4-2.1C642,248.3,641.8,247.4,640.8,247.1 M638.8,246.4h-2.2
	v-2.6h2.2c0.9,0,1.4,0.4,1.4,1.3C640.2,246.1,639.7,246.4,638.8,246.4 M100,250.4h22.1l5.5-14.7h25.8l5.5,14.7H181l-40.5-116
	L100,250.4z M133.9,214.5l6.1-20.2l6.1,20.2H133.9z M517.7,169.8c-22.5,0-40.8,18.3-40.8,40.7c0,22.5,18.2,40.8,40.8,40.8
	c22.5,0,40.8-18.3,40.8-40.8C558.4,188.1,540.2,169.8,517.7,169.8 M517.7,230.8c-11.2,0-20.2-9.1-20.2-20.2
	c0-11.2,9.1-20.2,20.2-20.2c11.2,0,20.3,9.1,20.3,20.2C537.9,221.8,528.9,230.8,517.7,230.8 M675.8,88.9c-1.2,0-2.1,0.6-2.1,1.3
	v221.5c0,0.7,0.9,1.3,2.1,1.3c1.1,0,2.1-0.6,2.1-1.3V90.2C677.9,89.5,677,88.9,675.8,88.9 M890.3,222.1l0-0.9h-4.6l-0.1,0.3l-1.4,3
	c-0.3,1.3-0.9,2.5-2.9,3.6l-1.1-1.5l-0.8,0.6c-1.5,1.4-2.4,4.4-2.6,5.9c-4.5,0.6-7.7,5.4-9.8,8.8c-0.8,1.2-1.7,2.7-2.1,2.9
	c-2.7,1.3-4.3,1.3-5.3,1.3l-1.2,0.2l-4.3,2.3l-2.5,1l-1,0.1l-0.1,0l-0.6-0.8c1.1-1.8,2.8-6.2,5-12.3c1.1-3.1,2.4-6.6,2.8-7.1
	l0.2-0.2l0.2-0.3v-3.7c0.1-2.2,7.1-21,11.5-22.9l0.7-0.3l-0.2-0.7c-0.1-0.6-0.4-2.1-0.4-3.5c0-0.9,0.1-1.7,0.3-2.3
	c0.9-2.4,4.9-4.5,6.4-5.1l0.5-0.2v-6.7c0.9-1.1,1.7-3.2,2.7-6c1.4-3.9,3.2-8.8,5.6-10.5l0.5-0.4l-0.2-0.6c0,0-0.5-1.7-0.5-3.6
	c0-1.6,0.3-3.3,1.6-4.4l0.3-0.3v-25.2l-0.9-2.2l-0.5-1.2v-7.9l-42.1-0.2l0.1,1c0.1,0.9-0.7,2.3-1.2,3l-0.2,0.2v13.3l1.6,1.3
	c2.1,2.1,0.6,7.8-0.2,9.8l-0.1,0.2l0.4,0.8l0.2,0.9l0.1,0.9l0.8,5l0.3,0.2c1.1,0.8,1.1,1.1,1,1.7c-0.2,1-0.2,2,1.3,3.4l0.8,0.7
	l0.6-1c2.1-3.4,2.8-4.6,2.8-5.6v-11.1c0-1.5,3.5-3.2,4.6-3.2h0.9v-0.9c0-5.6,3.2-7.2,5.8-8.5c0,0,1.4-0.9,2-1.3
	c0.4,0,13.2,0.1,14.7,0.1v8.8c-2.3,2.2-3.9,4.4-5.3,6.5c-1.3,1.9-2.5,3.6-3.9,4.7c-0.8,1.6-1,3.4-1,5c0,2.2,0.4,3.7,0.6,4.4
	c-4.2,4-5.2,6.2-5.4,7.1c-0.5,0.4-3.4,2.6-3.4,2.6c-2.5,3.8-5.2,17.2-5.3,17.7c-4.6,4.8-5.2,8.4-5.5,10.4l-0.2,0.9
	c0,0-3.3,3.7-4.8,6.6l-1.4,5.1c-0.2,1.6-0.5,3-1.1,3.5l-0.3,0.2l-0.1,0.5l-0.6,4.9c-0.4,2.4-0.9,5-0.9,7.4c0,0.8,0,1.5,0.2,2.3
	c0.2,0.3,0.9,1.4,0.9,2.7c0,0.7-0.2,1.4-0.8,2.2l-0.5,0.7l0.7,0.5c0.6,0.4,2.2,3.9,2.4,4.6l0,1l-1,0.8l-0.4,0.3l0,0.5v8.5
	c-1,0.9-2,2-2,2.6l0.7,1.7l1.1,1.3l0.5,0.1h10.3c1.5,1.5,4.2,2.1,4.6,2.2c1.7,0,2.3-0.9,2.8-1.6c0.5-0.8,0.9-1.4,2.5-1.4l1.3-0.1
	l0.2-0.1l1,1.4l0.6,0.2h15.6l0.3-0.4c0.8-1.2,4.1-2.5,4.7-2.5l0.9,0l0-0.9c-0.5-9-0.7-19.1-0.1-20.3l1.2-2.2
	c0.3-0.9,0.5-1.4,1.5-1.7l1-0.3l-0.4-0.9C890.2,228.1,890.2,223.6,890.3,222.1 M948.8,250c0-1.4-0.8-2.3-1.4-3.1l-1.1-1.4l-0.5-0.1
	h-6.5c-0.4-0.4-1.9-2.1-1.9-2.1l-0.6,1c-2.2,3.6-3.9,4.3-6.2,5.2l-5.2,2.7l-2.2,0.8c-1.9,0.6-4.2,1.3-5.5,2.7
	c-1.1,1.2-1.3,2.6-1.4,3.6c-0.2,1.1-0.2,1.3-0.5,1.3l-2.9,0.3c-1.6,0.3-2.9,0.5-4.4-0.2l-0.7-0.3l-0.6,0.9l-0.6,0.9l-0.6-0.4
	c0.2-0.6,1.2-3.1,1.2-3.1c0.4-0.8,1.3-3,1.3-4.5l0-0.3c1.1-1.5,4.3-7.2,4.9-11.4l0-7.2l4.1-11.5l0-15.5c0.5-1.9,1.3-2.8,2.2-3.7
	l1.9-2.7l0-4.9c1.9-2.1,2.7-5.1,3.3-7.8c0.5-2,1-4,1.8-4.6l0.4-0.3l0.4-13.6c-0.1-0.4-0.1-0.9-0.1-1.2c0-1.4,0.5-2.6,1.1-4l1.3-3.7
	l1.5-8.6c0.1-1.4,0.5-1.7,1.1-2.1l1.6-1.9c0.2-0.7,0.3-1.5,0.3-2.3c0-1.1-0.1-1.9-0.2-2.4l0.8-0.8c1.9-1.8,2.6-2.4,3.2-4.9
	c0.2-0.7,0.2-1.5,0.2-2.3c0-1.2-0.1-2.1-0.2-2.5c2.5-2.6,3.6-5.4,4.4-7.5l1.2-2.7l0.1-0.4v-2l-1.7,0l-0.1,0l-1-1.5l-0.5,0l-35,0
	l-11.3,0h-0.9l0,0.9v24.9c-1.3,1.2-2.1,2.4-2.1,3.3l0.4,2c0.2,0.6,0.3,1.1,0.3,1.8c0,0.7-0.2,1.6-0.7,2.9l-0.2,0.6l2.7,2.3l0.8-0.6
	c0.7-1.1,1.1-1.1,1.8-1c2.5,0.1,3.8-1.2,5.2-9.6c1.4-8.4,3.6-11.4,4.3-11.5l1.5-0.3c1.5-0.4,4-1.1,5.1,0l1,1.4l0.6,0.3h6.8l0.4,0.4
	l0.1,0.1l0,0.1c0,0.2-0.1,0.5-1,1.1l-0.4,0.3l0,0.5v4.5c-3.9,3.9-9.6,16.8-9.6,18.1v4c-0.3,2.5-1.8,5.1-2.9,7l-1.2,2.6l0,1.3l0,1
	c0,2-1.8,3.8-1.8,3.8l-0.2,0.2l-0.1,1.1l0.1,1.5l1,1.2l0.3,0.3l-8.2,21.6c-0.1,0.5-1.4,6.8-1.4,13.5c0,3.5,0.3,7.1,1.4,10l0.7,1.4
	l0.6,1.6c0,0.1,0.5,2.9,0.5,5.8c0,1.4-0.1,2.8-0.5,4l-0.9,2.1l-0.5,1.5c0.3,0.8,0.5,1.9,0.5,2.7c0,0.5-0.1,0.9-0.3,1.2l-1.3,1.1
	l-0.3,0.8c0.1,0.5,0.3,1.6,0.3,2.6c0,0.6-0.1,1.2-0.3,1.6l-1.8,1.8l-1.2,0.8l0.2,0.6c0.2,0.6,0.5,1.7,0.5,2.6c0,0.5-0.1,1.1-0.3,1.3
	l-1.2,1l-0.4,0.7v5.2l-0.1,0.8c-0.1,0.4-0.1,1-0.1,1.5c0,1.1,0.3,2.5,1.5,3.8l0.3,0.3h0.4c1.9,0,4.1-1,5.9-1.7l2.2-0.8l3.9-0.1
	l7-0.2c2.1-0.7,4.1-2.1,5.4-3.5c0.7,0.1,6.9,0.7,6.9,0.7l-0.1,0.1l0.4,0.9l0.3,0.4l0.5,0h20.7l0.1-1.7l1-0.7l0.4-0.3l0-0.5v-12.6
	l-0.6-1.7l-0.8-2.8c0-1.8,0.5-2.4,0.8-2.9L948.8,250z M807.5,126.5c0.6,0.8,1.2,1,2.8,1c0.5,1,1.6,1.6,2.6,1.9
	c1.5,0.4,2.5,0.8,2.8,1.9v0l1.7,29.5l0,0.5l1.3,0.7c-0.4,0.3-1.4,1-1.4,1l0.1,0.4l0.4,58.4c-1.2,1.5-1.8,4.1-1.8,5.7l0.9,3.3
	l0.4,1.2l0.1,1.4l-1.4,1.1l0,0.5c0,0,0,0.4,0,1.1c0,3.4-0.1,14.2-1.2,17.5l-0.5,0.3l-3.4,2.9l-2.8,3.9l0.7,0.6l1,0.9l1.2,0.7
	c0.6,0.8,1.6,0,4-2.4c2.2-0.9,14.1-1.3,15.4-0.3l0.4,0.2l0.5-0.2l2-0.6c0.5,0.1,1,0.1,1,0.1l3.5,0.6l0-1.2l-0.6-4.3l-6.5-4.2
	c-2.2-1.3-2.3-1.3-2.9-4l-0.3-1c-0.4-1.6-0.7-2.5,0.1-3.4l1.2-1l0.4-0.6l0.7-10.2l-0.3-0.3c-0.4-0.6-1.8-4.4-1.8-5.1l-0.9-6
	c-0.3-0.9-0.5-1.7-0.5-2.3c0-0.8,0.3-1.4,1.1-2.2l1.6-1.3l0.1-0.4v-5.8l-0.3-0.5l-0.2-2.3l-0.1-1.7l-0.3-4.6l0-0.3
	c0-0.5-0.1-1.3-0.1-1.3c-0.1-0.6-0.2-1.4-0.2-2.1c0-1.1,0.2-2.3,0.9-3.1l1.6-1.3l0-0.6l-0.7-3.8l-0.3-0.5l-0.3-1.6
	c-0.1-0.9-0.4-1.7-0.7-2.2c0.4-3,0.6-7.5,0.6-12.5c0-6.1-0.2-12.8-0.4-18l-0.2-8.3c0-0.4,0.1-0.5,0.6-0.9c0.6-0.5,1.5-1.1,1.5-2.8
	c0-1.6-0.3-2.3-1.1-2.7l-0.3-1.7c0-2.6,3.5-5.3,6.6-6.2l0.6-0.2v-3.2l-0.8-0.9l-1.5-2l-0.7,0.1c-2.4,0.9-22.3,0.9-25.4,0l-0.6-0.2
	l-0.4,0.6l-1.8,2.4l0.6,0.6L807.5,126.5z M979.9,194.6l0-0.5l0.4-7.7v-0.5l-0.4-0.3c-0.9-0.6-1-0.9-1-1.2l0-0.4l0.1-0.9
	c0-0.7-0.4-1.6-1.5-2.7v-6l-1.4-1.1l-4.4-16.9c-1.4-3.6-5-13.4-5-16.4v-4.1l-0.8-1.8c-0.7-0.8-1.9-2.3-4.1-7l-0.3-1.4
	c-0.3-2.5-1-7.2-4.7-7.2l-2.3,0.8c-0.9,0.9-1,2.3-1,3.8l0,1.4c0,2.1-0.2,2.8-1.1,2.9c-0.4,0.1-2.4,2.2-2.4,2.2l-1.1,1.2l-0.1,0.5
	v5.7c-0.4,0.6-2.1,2.8-2.1,2.8l-0.6,1.1c-1.5,2.7-2.7,6.8-3,7.7l-0.3,0.2l-1.1,0.9c-0.5,0.6-0.6,1.2-0.6,1.8c0,0.5,0.1,1,0.3,1.5
	l0.2,1.9c-1.3,1.3-2.2,3.2-3.1,5.2l-0.6,1.3c-1.1,2.4-1.3,5.2-1.5,7.6c-0.2,2.9-0.4,5.4-2,6.3l-0.4,0.3v0.5c0,4.3-1.5,7.5-1.5,7.5
	l-1,1.7l-1.6,3.1l-0.1,3.6l0,3.7c-0.3,2.2,0.3,3,1.2,3.4l0.1,0l0,0.1c0,0.7-0.1,0.9-1,1.5l-0.4,0.3v5.9l-0.1,0.1l-1,0.9
	c-0.7,0.8-0.9,1.9-0.9,3.1c0,1.7,0.5,3.2,0.7,3.8c-0.3,0.8-0.7,2.6-1.3,8.1l-0.1,0.5l0.6,0.4l0.8,0.7c0,0.2-0.8,0.7-1.4,1l-2.8,2.3
	c-1.1,1.9-1.3,4.9-1.3,5.7c-0.5,0.6-5.2,5.9-5.2,5.9l0.4,0.6l0.9,1.8l1.4,3.5l0.8-0.4l13.9-5c1.4-0.4,7.6-0.2,11.3,0l0.6,0l0.4-0.8
	l1.3-2.4c0.4-0.6,0.8-1.1,0.8-1.6l-0.1-0.4l-0.1-0.3l-0.8-0.5l-1.7-1.2c-0.6-0.6-1.4-1.1-2.2-1.4v-7.2c0-0.2-0.6-2-1-3.2h1.9
	c0.9,0.9,2.8,2,6.1,3.8c3.2,1.8,10,5.5,10,6.8c-0.4,11.9-8.6,20.8-8.7,20.9l-0.2,0.3v0.4c0,3.8,2.4,6.2,4.3,8.1
	c1.4,1.4,2.5,2.5,2.5,3.8v4.1l4.1,13.6l0,8.9l2-0.9l0.6,0.4l1.6-0.8l1.2-1.1l0.1-0.5v-5.9l1.3-1.1l0.1-0.5v-4.6c1-1.2,1.5-3,2-4.9
	c0.5-1.7,1-3.7,1.7-4.2l0.4-0.3v-8c1.8-2.1,3.1-5.8,4.2-9.3c0.7-2.3,1.6-5.2,2.3-5.7l0.3-0.2l0.1-0.3c0.4-1.7,0.6-9.3,0.6-16.9
	c0-7.3-0.2-14.6-0.4-16.7C981.3,208.2,979.9,197.3,979.9,194.6 M964.3,213.7c-0.5,0-1.1,0-1.7,0c-3-0.9-5.1-3.6-8.9-4.4
	c-3.1-0.7-6.3-0.3-8.2,0c0,0,0-0.7,1.4-1.1c0.6-2.3-0.5-10,0-13c1.2-1.3,1.4-9.2,1.4-9.2c3.2-0.2,1.8-3.6,4.1-5.2l0.3-9.2
	c0,0,1.4,5.2,3.3,7.3c1.6,1.7,3.7,0.9,5.6,2.7c2.3,2.1,1.3,9.3,2.7,10.4C964.8,194.8,964.3,213.7,964.3,213.7 M883.4,266.1l-0.9,0
	c-13.8-0.5-46-1.2-48.1,1.6c-4.7,3.3-10.1,1.8-14,0.6c-1.9-0.5-3.3-0.9-4.4-0.7l-1.2,0.7c0,0-2.2,2.1-2.8,2.7
	c-3.2,0.5-5.3,0.3-7.5,0.2c0,0-2.1-0.1-3.1-0.2c-0.2-2.3-0.7-3.3-1.3-3.8l0,0l0.1-0.3l1-1.8l0.1-0.2l0.2-0.5v-8.8l1.3-1.1l0.1-0.5
	v-5.9l0.4-0.4c0.9-0.8,1-1.1,1-2.6l-0.6-2.2l-0.7-0.9c0.1-0.4,0.3-0.9,0.3-0.9c0.4-1.5,0.6-1.9,1.6-2.1l0.7-0.1l0-0.7
	c0-0.4,0.1-3,0.1-5.1c0-1.2,0-2.3-0.1-2.9l-0.1-0.3l-1.3-1.1c0,0,0-8.7,0.1-9.5l1.3-1l0.1-0.4c0.1-1.7,0.7-12.1,0.7-20.2
	c0-4.7-0.2-8.6-0.8-9.9l-1.7-1.9l-0.9-0.7v-28.8l1.3-1.1l0.1-0.5v-6.4l-0.4-0.3c-2.3-1.7-2.4-2.5-2.4-2.5c0-0.8,0.1-1,1-1.6l0.4-0.3
	v-14.3l-0.4-0.3c-1.5-1.1-4.8-5.1-6-6.5l-1.9-0.3c-0.8,0.2-1.7,0.4-3.5-2.6l-0.3-0.4h-11c-0.3-0.4-1-1.4-1-1.4l-0.5-0.1h-2.3
	l-0.3,0.7l-0.6,1.5l-1.2,1.4l0.8,0.5c5.1,3.7,5.7,5.4,6,6.2l1.2,1.6l0.4-0.3c2.8-0.1,3,0.5,3,0.5c0.1,0.1,2,3.8,2.4,7.5v0.1
	c0,1.3-1.6,5.5-2.2,6.3l-0.5,0.7l2,1.6c0.1,0.4,0.1,1.1,0.1,1.9c0,2.3-0.2,5.7-0.4,7.4l-0.8,0.8l-1.8,1.7l-0.1,0.5V170l1.4,1.1v20.8
	l0.4,0.3c0.4,0.2,1.3,1.4,1.4,2.4l0,0.2c0,1.2-1.1,2.7-1.4,2.9l-0.4,0.3l0,0.5v14.8c0-0.4-1,0.4-1,0.4l-0.3,0.2l-0.1,0.4
	c0,0.1-0.4,2.2-0.4,5.1c0,1.4,0.1,3.1,0.3,4.8l-0.1,0.2l-1.1,0.9l-0.2,0.5l0,18.7l0.4,0.3c1.2,0.9,2.4,1.8,2.4,3.4l0,1.1l-1,0.8
	l-0.3,0.3l0,0.5v4.8c0-0.4-1,0.4-1,0.4l-0.3,0.3l-0.1,0.5v11.2l0.4,0.3c0.7,0.5,1,0.7,1,1.1c0,0.4-0.4,0.8-0.8,1l-0.4,0.3l-0.1,0.6
	v5.9c-0.5,0.4-3.2,2.6-3.2,2.6l-1.6,1.3l-3.7,1.9l-0.3,0.2l-0.2,0.5l-0.6,1.6l-1.1,1.3l0.7,0.7l1.6,1.7l0.7-0.2
	c1.8-1.1,8.3-0.5,12.1,0.1l0.7,0.1l0.2-0.7c0.6-1.6,5.5-5.1,8.6-7l4.7,0.1c0.5,0.1,3.2,0.9,3.7,1.8l0.3,0.4h0.5
	c10.8,0,31.3,0,34.4,0.3l0.1,0.1c0.5,0.9,1.2,1.7,3.2,1.9h13.1c1.2,1.4,2.1,1.6,3,1.4c0.4-0.1,0.6-0.1,1.4,1.1l0.3,0.4h4.9l-0.1,0.1
	l0.4,0.9l0.3,0.4l0.5,0h19.4l-3.4-6.3L883.4,266.1z M1091.4,112.9c-4.7,0-8.6,3.9-8.6,8.6c0,4.7,3.8,8.6,8.6,8.6
	c4.8,0,8.6-3.8,8.6-8.6C1100,116.7,1096.2,112.9,1091.4,112.9 M1091.4,128.2c-3.7,0-6.7-3-6.7-6.7c0-3.7,3-6.7,6.7-6.7
	c3.7,0,6.7,3,6.7,6.7C1098.1,125.2,1095.1,128.2,1091.4,128.2 M1091.1,166.5l-0.2-0.4l-0.7-2.1l-1.2-2.9l0.3,0.7l0.4-14.5l-0.4-0.3
	c-0.7-0.5-0.8-0.8-1.4-2.5l-3.8-9l-2.3-2.3c-1.5-1.3-3.4-2.9-4.6-4.8l-0.3-0.4h-6.4c-0.3-0.4-1-1.4-1-1.4l-0.5-0.1h-5.4
	c-0.3-0.4-1-1.4-1-1.4l-0.5-0.1h-4l-0.3-0.4l-1.3-1.8l-0.5-0.1h-4.2c-1.6-1.7-4.1-2.7-6.1-3.5c-1.3-0.5-3.1-1.2-3.2-1.7l-0.1-0.7
	h-4.7c-0.3-0.4-1-1.4-1-1.4l-0.5-0.1h-8.4l1.1,1.4c0.4,0.5,9.1,8.8,12.1,11.7v7.8c0-0.4-1,0.4-1,0.4l-0.3,0.3l-0.1,0.5v10.7l-1,0.4
	l-0.3,0.3l-0.1,0.5v27.5l0.2,0.5l0.4,2.2l0.8,2.9l-0.3-0.7l-0.6,9.9l1.3,1.1c-0.2,0.9-0.3,2.2-0.3,3.8c0,3.1,0.2,6.9,0.3,8.5
	l0.9,2.1l0.5,1.1v4.1c0,0.9,3.1,10.9,6.2,14.3c-0.1,0.6-2.5,24.9-2.5,24.9c0.1,0.4,2.8,6.7,2.8,6.7l1.6,4c0.3,0.8,1,0.8,1.3,0.8
	l0,0.3c-0.1,0.5-1.7,1.5-4.9,2.7l-1.5,0.6l0.3,0.8c0,0,1.6,4.3,1.6,7.4l0,0.7c-0.3,3.4-1.9,6.8-4.3,9.2l-0.8,0.8l1,0.6
	c1.2,0.7,7.8-0.2,10.1-1.2c0.2-0.1,0.7-0.4,1-0.8l1.5,0.7l3,0.9c1.7-0.9,4.7-1.7,7.6-2.5c5.1-1.4,7.9-2.2,8.4-3.6l0.8-0.7l1.8-2.5
	l2.3-4.4l0.6-1.7l1.5-7.8c1.2-2.9,1.2-6,1.2-9c0-2.8,0-5.5,1-7.9c1.4-5.1-0.2-26.6-0.2-27.5l-0.3,0.7l0.5-1.5l0.8-3.9l0.9-7
	c0.3-0.1,1.9-1.6,3.2-4.4c0.7-1.3,0.9-3,0.9-4.7c0-1-0.1-2-0.1-3l-0.1-3.6c0.3-0.6,1-1.7,1-1.7l0.8-1.5l0.3-0.4
	c0.4-1.2,0.6-3.9,0.6-7.1c0-5.5-0.4-12.2-0.5-13.3L1091.1,166.5z M1077,187.8c-1.9,1-3.3,10-3.3,10s-2.9,1.4-2.6,6.3
	c-1,2.4-1,30.2-1,30.2c-0.6,3.3-2.3,5-3.8,10.2c0.4,8.4-7.1,16.7-7.6,17.3l0.2-66.6c-1.3-0.7-2.7-7-2.7-8.9c0,0-0.7-1.7-1.1-2.4
	c0,0.6-0.1,0.8-0.1,0.7c-0.2-1.1-0.1-1.1,0.1-0.7c0.1-3.9-0.6-21.8-0.6-21.8l-0.4-1.8l0.6-5.7c3.8-0.3,5,0.1,8.5,0.1
	c2,0,2.1,3,5.5,3c0,3.7,3.3,4.4,5.1,7c0.6,0.9,1.4,8,3.1,8.9L1077,187.8L1077,187.8z M1093.8,121.4L1093.8,121.4
	c1-0.4,1.4-1.2,1.4-2.3c0-1.4-1-2.5-2.7-2.5h-4.9v9.1h2v-3.5h2c1,0,1.4,0.4,1.5,1.4c0.1,0.7,0.1,1.6,0.3,2.2h2
	c-0.4-0.5-0.3-1.6-0.4-2.1C1095.1,122.6,1094.8,121.6,1093.8,121.4 M1091.9,120.7h-2.2v-2.6h2.2c0.9,0,1.4,0.4,1.4,1.3
	C1093.3,120.3,1092.8,120.7,1091.9,120.7 M775,250c0.1-0.7,0.2-1.5,0.2-2.2c0-1.8-0.3-3.7-0.6-5.2c-0.2-1-0.4-2.2-0.4-3l0.1-0.6
	c1.9-2.4,2.4-5.3,2.4-8.3c0-1.8-0.2-3.7-0.4-5.7l-0.4-7.1v-6c0.2-0.5,0.4-1,0.4-1l-1.6-2.2l-1.3-1.3c-0.8-1.8-1.1-4.1-1.1-6.4
	c0-4.7,1.1-9.2,1.1-9.3l0.1-0.6l-1.7-1.3v-0.1c0-0.4-0.3-1.1-2.5-3.2l-0.6-0.6l-0.7,0.6c-0.3-0.3-0.5-0.9-0.5-1.3l0-0.2
	c0.4-0.6,1.7-2.5,1.7-4.2l-0.2-1.1c-0.2-0.5-0.7-1.2-1.9-1.4c-3.6-0.4-5.8-2.1-6-2.6c0.9-0.7,5.9-6.8,7.9-10.6l5.1-9.5
	c1.1-1,1.4-2.5,1.4-4.3c0-1.4-0.2-2.9-0.4-4.6l-0.5-6.1c0-4.2-2.8-11.8-7.2-14.8c-1.9-1.3-3.8-1.1-4.5-1l-0.7-0.5
	c-1-0.7-2.3-1.6-2.7-3.1l-0.1-0.6l-0.6-0.1c-5.1-0.8-7.6-0.6-11-0.3l-9.2,0.4l-7.2-0.2c-0.1,0-9.3,0.4-11.7,1.8h-7.4l-1.2,1.6
	l-0.6,2.6l0,1.4c0,0.6,0.1,0.9,0.6,1.2l0.9,1.2l4.6,4.4l0.1,0.2c-0.5,0-1,0-1,0s0.7,0.5,1.3,0.9c0.1,0.6,0.3,0.8,1.3,0.8
	c0.4,0.2,0.8,0.4,1.2,0l0-0.1l0.8,0l0.6,0.6l0,0.1l0,1.4l0.1,1.8l-0.9,0.7l-0.3,0.3l-0.2,0.6v34.4c0.1,0.5,1.6,2.9,1.6,2.9
	c0.1,1.7,0.1,4.3-0.1,4.8l-1.4,3.1l-0.1,9.9c0.1,0.4,1.1,2.6,1.1,2.6l0,0.1c0,1,0.3,6.5,0.3,6.6c0-0.2-0.3,0.7-1.3,0.7l-0.8,0.1
	l-0.1,12l-0.3,14.2l1,11.2l0.2,2.5c0.7,4.9,0.5,8.1,0.3,12.4l-0.3,10.8c-1,5.1-2.6,11.4-3.1,12.2c-0.6,0.6-2.8,1.6-4,2l-1.4,0.5
	l2.2,1.9l0.8,0.7l0.8-0.2l2.4,0.1c1.9,0.2,3.3,0.3,4.2-0.1c4.7,0.8,12.4,1.7,13.6-0.9c0.9-0.8,1.5-1,1.8-1l1.2,0.9
	c0.5,0.5,1,1.1,1.8,1.1c0.6,0,1.1-0.3,1.6-1c0.6-0.4,5.1-1.2,8.9-1.8l0.5-0.1l0.2-0.5c0.6-1.6,2.6-3,4.8-4.6l1.4-1
	c3.1-2.3,8.7-4.9,8.8-4.9l0.5-0.2l0-0.5c0-0.1,0.5-5.9,1.9-9.3c1.1-2.8,3.9-6.8,3.9-6.8L775,250 M756.9,239c0.2,1.1-2.1,9.4-2.6,9.8
	c-0.9,4.4,0.2,10-2.1,12c-1.9,1.3-4.6,6.4-7.5,6.5l-3.1,2.8c-1.9,0.7-5,1.1-5,1.1s3.6-6.5,2.9-5.6c-0.1,1.8-0.4-5.3-0.4-5.3
	c0-19.7-0.4-7.7,0.4-12.5c0.1-0.9,0.8-1.2,1.4-1.8v-25.3c-0.9-0.4-1.5-1.2-1.4-2.2c0.1-0.9,0.5-1.5,1.4-1.9l1.4-6.7
	c0,0-1.9-7.6,0-10c0.3-3.5,0-14.6,0-14.6l4.3,4.5c0,0,3,2.9,5.5,4.3c0,0,3.6,3.1,2.1,4.5c-1,0.7,2.4,3.2,0,3.3c0,0,2.4,2.6,1,5.2
	c1.8,1-0.7,5.5-0.7,7.3c0,5.8,2.3,1.7,2.3,8.7c-4.6,3.3,2.4,9.7-0.5,11.8C758.3,236,756.2,237.9,756.9,239 M755.7,144.9
	c-0.4,0.2,1.4,5.1,1.4,5.1c-1.8,1-1.4,10-1.4,11.7c-8.1,0.6-6.3,7.4-9.9,8.5c-0.2,0.1-0.9-1.1-3.4,0v-27.3c2.2-1.2,0.8-1.2,1.8-3.8
	c0.5-0.2,1.3-0.6,1.3-0.6c0.2,0.5,0.2,1,0,1.5l5.2-0.7h1c2.1,4.4,3.7,2,6.9,3.7L755.7,144.9z M1038,242.3l-0.6-0.2l-1-0.3
	c0.1-0.3,0.5-4.1,0.8-4.7l0.2-0.3l0-0.4l-0.4-2.7c-1.3-9.4-1.9-12.8-2.3-13.4l-0.4-0.7l-1.2,0.6c-0.3-0.2-0.6-1.7-0.7-2.3
	c-0.1-0.8-0.2-1.4-0.6-1.8c-0.3-0.7-0.4-4.3-0.5-6.7c-0.2-4.7-0.3-6.8-0.8-7.5l-0.6-2.5l-0.4-2l-0.4-1.6l0-0.2
	c0-1.1-0.7-1.4-2.9-2.2l0,0l-0.1-1c-0.1-1.2-0.2-3-2-3.7c-3.7-4.6-5.6-4.7-7.9-4.2c0,0-0.6,0-1.1,0c0.3-0.4,0.5-0.6,0.5-1.3
	c0-0.2,0-1.6,0-2.3c7.6-0.5,13-6.6,16.1-18.6l0-6.1c0.3-0.6,0.6-1.3,0.6-1.3l0.5-1.5l0.3-0.5c0-0.7,0.2-3.3,0.2-5.5
	c0-1.5-0.1-2.8-0.3-3.3l-7-14.7l-0.6-0.3l-1.8-1.4c-2-1.7-4.7-4.1-7.8-4.5l-2.5-0.1l-0.5,0c-4.6-1.4-10.1-3.2-10.7-3.5l-0.2-0.1
	l-0.3-0.1h-6.7l-0.3-0.4c-0.6-0.9-1-1.1-2.2-1.1l-3.6,1l-19.7,0.5l-0.2,1.8l5,1.1c0.4,0.3,0.9,0.7,0.9,0.7c2.4,1.7,8.9,6.3,9.1,10
	l0,0.8l0.4,0l2.7,0.2c0.4-0.1,1.6-1.1,1.6-1.1l0.1-0.1c0.5,0.1,2.4,0.6,3.6,1c-2.8,3.7-6.4,6.4-9.1,8.4l-3.4,2.7l0,0.3
	c-0.2,1.7-0.3,4-0.3,6.4c0,2.4,0.1,4.8,0.3,6.4l0,0.3l1.3,1.1l0,0l0,0.3c0,0.7,0.4,1.4,1.4,2.5c0,0.6,0.1,6.7,0.1,6.7l0.2,0.5
	l0.3,2.6c0.1,2.2,0.2,2.9,0.6,3.3c0.5,1,0.5,2.7,0.5,3.6l0,0.6l0,0.1l0.2,0.5l0.3,1.7l0.8,2.6l-0.3-0.7v5.1l0.3,0.5l0.5,1
	c0,0,0.3,0.6,0.6,1.1l0.7,5.7l0.2,0.5l0.2,1.1l0.6,2l-0.3-0.6c0,7.6,0,19.4,0,27.8c0,5.8,0,10,0,10.3l0,0.4l1.4,1.2
	c0.2,1.5,0.3,2.7,0.3,3.6c0,0.9-0.1,1.5-0.2,1.8c-1.8,1.6-6.1,16.2-6.9,19.1v0.1c0,1.3,1.2,2.1,3.3,3.5c4.1,2.8,11.7,7.9,15.9,19.3
	l1,2.8l0.7-2.9c1-4.4,1.3-7.2,1.3-9.1c0-1.2-0.1-2-0.2-2.6l0.1-0.1l1-1c0.1-0.5,0.2-1.3,0.2-2.1c0-2.3-0.4-5.3-0.8-8.3l-0.6-5.6
	c0.9-2,1.2-5,1.2-8c0-2-0.1-4-0.3-5.8l-0.8-1.9l-0.3-0.6l0-0.1c0-0.6,0.5-1.2,0.6-1.3l0.3-0.2l0.1-0.4v-0.1c0-1.2-0.6-6.7-1.5-15.2
	c-0.8-7.6-2-17.9-2-19.8l0-0.2l0.8-2.4l0.5-0.9c1.3-2.7,1.7-4,1.7-5.3l-0.1-1c2.1,1.6,5.1,7,6.7,9.9l1,1.8l0,0.3
	c0,0.9-0.4,3.5-0.7,5.3l-0.7,4.9l0.8,0.2c3,0.7,6.8,20.5,6.8,23.2v0.1c0.1,0.6,0.2,2.3,0.2,4.4c0,4.8-0.2,11.7-0.6,13.3l-2.6,8.1
	c-1.5,4.3-2.3,6.5-2.3,7.7l0.1,0.6l0.2,0.6l1.9,0c3.6-0.1,5.3-0.1,12.9,7.4c1.1,1.1,5.5,2.5,6.4,2.8l0.9,0.3l3-15.9l0.7-3.1
	c1.2-2.9,0.3-4.5-0.2-5.2l-0.1,0c0.7-3.2,0.9-5.5,0.9-7.2c0-1.7-0.2-2.8-0.4-3.6c-0.1-0.4-0.2-0.7-0.2-1c0-0.4,0.1-0.7,0.5-1.2
	l0.1-0.2l0-0.3c0-1.4-1.4-4.5-1.9-5.3L1038,242.3z M1014.9,160.8c0,0-0.5,2.4-0.2,4c-0.9,2.1-2.7,8.6-4.1,10.4
	c-0.7,0.9-3.1,2.5-5.5,3c-1.5,0.3-3.8,0-3.8,0v-41.5c0.6,0,1.1,0,1.7,0c3.3,0,11.6,11.9,11.6,11.9c2.3,4,1.4,7.4,1.4,7.4v3
	C1015.6,159.1,1015.4,161,1014.9,160.8">
 </path>
</svg>